<svg width="143" height="31" viewBox="0 0 143 31" fill="none" xmlns="http://www.w3.org/2000/svg">
<rect opacity="0.01" width="30" height="29" fill="#FF495F"/>
<g clip-path="url(#clip0_32_618)">
<path d="M23.6475 9.87691C26.8475 15.8968 24.2738 23.9612 16.9225 25.1333C7.29501 27.1718 0.872506 15.8098 8.10501 9.14828C8.49126 8.77974 9.55626 7.82516 10 7.51824C10 8.15624 10.3375 11.7172 11.25 11.345C15 11.345 16.25 6.24345 15.7338 2.41666C19.1088 4.12162 21.9675 6.49599 23.6475 9.87691Z" fill="#FF495F" stroke="#FF495F" stroke-width="2" stroke-linecap="round" stroke-linejoin="round"/>
<rect opacity="0.01" x="8.27586" y="12.1613" width="13.4483" height="11.2258" fill="white"/>
<g clip-path="url(#clip1_32_618)">
<path d="M18.8765 15.9846C20.3109 18.3149 19.1572 21.4366 15.8618 21.8903C11.546 22.6794 8.66698 18.2812 11.9091 15.7026C12.0823 15.5599 12.5597 15.1904 12.7586 15.0716C12.7586 15.3185 12.9099 16.697 13.319 16.5529C15 16.5529 15.5603 14.5781 15.3289 13.0968C16.8418 13.7568 18.1234 14.6759 18.8765 15.9846Z" fill="white" stroke="white" stroke-linecap="round" stroke-linejoin="round"/>
</g>
</g>
<path d="M33.6149 8.55C33.6149 8.55 33.7233 8.56667 33.9399 8.6C34.1566 8.61667 34.3983 8.69167 34.6649 8.825C34.9483 8.94167 35.1899 9.15833 35.3899 9.475C35.5899 9.775 35.6733 10.2167 35.6399 10.8C35.6233 11.1833 35.5983 11.7 35.5649 12.35C35.5483 12.9833 35.5399 13.6833 35.5399 14.45C35.5399 15.2 35.5566 15.95 35.5899 16.7C35.6399 17.45 35.7149 18.1417 35.8149 18.775C35.9316 19.4083 36.0816 19.9167 36.2649 20.3C36.4649 20.6667 36.7066 20.8417 36.9899 20.825C37.2899 20.8083 37.5149 20.6083 37.6649 20.225C37.8149 19.825 37.9149 19.325 37.9649 18.725C38.0149 18.1083 38.0316 17.4583 38.0149 16.775C37.9983 16.0917 37.9649 15.4417 37.9149 14.825C37.8649 14.1917 37.8149 13.675 37.7649 13.275C37.7316 12.8583 37.7066 12.625 37.6899 12.575C37.6733 12.5083 37.6483 12.3667 37.6149 12.15C37.5816 11.9333 37.5983 11.7 37.6649 11.45C37.7316 11.2 37.8983 10.975 38.1649 10.775C38.4483 10.575 38.8899 10.45 39.4899 10.4C40.0899 10.35 40.5566 10.425 40.8899 10.625C41.2233 10.825 41.4566 11.0667 41.5899 11.35C41.7399 11.6333 41.8233 11.8833 41.8399 12.1C41.8733 12.3167 41.8899 12.425 41.8899 12.425C41.8899 12.425 41.9149 12.6167 41.9649 13C42.0316 13.3833 42.0816 13.8917 42.1149 14.525C42.1649 15.1417 42.1649 15.825 42.1149 16.575C42.0816 17.325 41.9733 18.0833 41.7899 18.85C41.6233 19.6 41.3483 20.2917 40.9649 20.925C40.5816 21.5417 40.0649 22.0417 39.4149 22.425C38.7649 22.8083 37.9483 23 36.9649 23C35.9816 23 35.1483 22.8 34.4649 22.4C33.7983 21.9833 33.2483 21.4417 32.8149 20.775C32.3983 20.0917 32.0733 19.3333 31.8399 18.5C31.6233 17.6667 31.4733 16.8167 31.3899 15.95C31.3233 15.0667 31.2899 14.2333 31.2899 13.45C31.3066 12.6667 31.3316 11.9833 31.3649 11.4C31.4149 10.8167 31.4483 10.4 31.4649 10.15C31.4983 9.71667 31.6233 9.39167 31.8399 9.175C32.0566 8.94167 32.2983 8.78333 32.5649 8.7C32.8483 8.61667 33.0899 8.575 33.2899 8.575C33.5066 8.55833 33.6149 8.55 33.6149 8.55ZM46.8093 11.125C46.5926 11.1583 46.2843 11.1833 45.8843 11.2C45.4843 11.2 45.0759 11.175 44.6593 11.125C44.2426 11.075 43.8843 10.9833 43.5843 10.85C43.2843 10.7 43.1176 10.4833 43.0843 10.2C43.0676 9.91667 43.1509 9.69167 43.3343 9.525C43.5343 9.35833 43.7676 9.23333 44.0343 9.15C44.3009 9.05 44.5343 8.99167 44.7343 8.975C44.9509 8.94167 45.0593 8.925 45.0593 8.925L52.0593 8.275C52.0593 8.275 52.1759 8.275 52.4093 8.275C52.6426 8.25833 52.9093 8.26667 53.2093 8.3C53.5259 8.33333 53.8093 8.41667 54.0593 8.55C54.3093 8.66667 54.4426 8.85833 54.4593 9.125C54.4926 9.39167 54.4093 9.61667 54.2093 9.8C54.0259 9.96667 53.8009 10.1083 53.5343 10.225C53.2676 10.325 53.0343 10.4 52.8343 10.45C52.6343 10.4833 52.5343 10.5 52.5343 10.5L50.9343 10.75C51.0009 11.1667 51.0759 11.7583 51.1593 12.525C51.2426 13.275 51.3259 14.1083 51.4093 15.025C51.4926 15.9417 51.5676 16.8417 51.6343 17.725C51.7009 18.6083 51.7509 19.4 51.7843 20.1C51.8343 20.8 51.8593 21.3 51.8593 21.6C51.8593 21.9833 51.7509 22.275 51.5343 22.475C51.3343 22.6583 51.0926 22.7917 50.8093 22.875C50.5426 22.9417 50.3009 22.9833 50.0843 23C49.8843 23 49.7843 23 49.7843 23C49.7843 23 49.6759 23 49.4593 23C49.2426 22.9833 48.9926 22.9167 48.7093 22.8C48.4426 22.6833 48.2009 22.4667 47.9843 22.15C47.7843 21.8333 47.6843 21.3583 47.6843 20.725C47.6843 20.1583 47.6509 19.4667 47.5843 18.65C47.5343 17.8333 47.4676 16.9917 47.3843 16.125C47.3009 15.2417 47.2093 14.425 47.1093 13.675C47.0259 12.925 46.9509 12.3167 46.8843 11.85C46.8343 11.3667 46.8093 11.125 46.8093 11.125ZM58.5384 23C57.905 23 57.4467 22.9083 57.1634 22.725C56.88 22.525 56.705 22.3333 56.6384 22.15C56.5717 21.9667 56.5384 21.875 56.5384 21.875C56.5384 21.875 56.53 21.675 56.5134 21.275C56.5134 20.8583 56.505 20.3167 56.4884 19.65C56.4884 18.9833 56.48 18.25 56.4634 17.45C56.4467 16.65 56.43 15.85 56.4134 15.05C56.4134 14.25 56.405 13.5167 56.3884 12.85C56.3717 12.1833 56.355 11.65 56.3384 11.25C56.3384 10.8333 56.3384 10.625 56.3384 10.625C56.3217 10.625 56.23 10.5417 56.0634 10.375C55.9134 10.2083 55.83 10.0333 55.8134 9.85C55.8134 9.71667 55.9717 9.525 56.2884 9.275C56.605 9.025 57.1384 8.81667 57.8884 8.65C58.655 8.46667 59.705 8.43333 61.0384 8.55C62.2384 8.65 63.18 8.85 63.8634 9.15C64.5634 9.43333 65.0717 9.74167 65.3884 10.075C65.705 10.3917 65.905 10.675 65.9884 10.925C66.0717 11.1583 66.1134 11.275 66.1134 11.275C66.1134 11.275 66.1217 11.3 66.1384 11.35C66.1717 11.4 66.1967 11.5583 66.2134 11.825C66.2467 12.075 66.2717 12.4917 66.2884 13.075C66.305 13.6583 66.305 14.475 66.2884 15.525C66.2717 16.375 66.0717 17.05 65.6884 17.55C65.3217 18.05 64.8634 18.425 64.3134 18.675C63.7634 18.9083 63.2134 19.0667 62.6634 19.15C62.13 19.2167 61.68 19.25 61.3134 19.25C60.9467 19.2333 60.7634 19.225 60.7634 19.225C60.7634 19.225 60.7634 19.4083 60.7634 19.775C60.78 20.125 60.78 20.7167 60.7634 21.55C60.7634 21.9667 60.6467 22.2833 60.4134 22.5C60.1967 22.7 59.9384 22.8333 59.6384 22.9C59.355 22.9667 59.0967 23 58.8634 23C58.6467 23 58.5384 23 58.5384 23ZM60.5134 10.875L60.7384 17.075C60.7384 17.075 60.8467 17.0667 61.0634 17.05C61.28 17.0167 61.53 16.9333 61.8134 16.8C62.0967 16.6667 62.3384 16.4417 62.5384 16.125C62.755 15.7917 62.8467 15.325 62.8134 14.725C62.78 13.925 62.7467 13.325 62.7134 12.925C62.68 12.525 62.655 12.2667 62.6384 12.15C62.6384 12.0167 62.6384 11.95 62.6384 11.95C62.6384 11.95 62.6217 11.8833 62.5884 11.75C62.5717 11.6 62.505 11.4417 62.3884 11.275C62.2717 11.1083 62.0634 10.9833 61.7634 10.9C61.48 10.8 61.0634 10.7917 60.5134 10.875ZM76.981 23C76.3643 23 75.8976 22.9167 75.581 22.75C75.281 22.5833 75.081 22.3917 74.981 22.175C74.881 21.9583 74.831 21.7667 74.831 21.6C74.831 21.4333 74.831 21.35 74.831 21.35L74.531 10.5C74.531 10.5 74.5226 10.4167 74.506 10.25C74.4893 10.0833 74.5226 9.89167 74.606 9.675C74.6893 9.44167 74.8643 9.24167 75.131 9.075C75.3976 8.89167 75.8143 8.8 76.381 8.8C77.131 8.78333 77.6976 8.89167 78.081 9.125C78.4643 9.34167 78.7143 9.56667 78.831 9.8C78.9643 10.0167 79.031 10.125 79.031 10.125L81.906 15.35C81.906 15.35 81.9726 15.2 82.106 14.9C82.256 14.5833 82.431 14.1917 82.631 13.725C82.8476 13.2583 83.0643 12.7833 83.281 12.3C83.4976 11.8167 83.6893 11.4 83.856 11.05C84.0226 10.6833 84.131 10.45 84.181 10.35C84.2643 10.1833 84.4143 9.95833 84.631 9.675C84.8476 9.375 85.156 9.1 85.556 8.85C85.9726 8.6 86.5143 8.46667 87.181 8.45C87.681 8.43333 88.0643 8.49167 88.331 8.625C88.5976 8.74167 88.781 8.88333 88.881 9.05C88.9976 9.21667 89.0643 9.36667 89.081 9.5C89.0976 9.63333 89.106 9.7 89.106 9.7C89.106 9.7 89.106 9.91667 89.106 10.35C89.106 10.7667 89.106 11.325 89.106 12.025C89.1226 12.725 89.131 13.4917 89.131 14.325C89.131 15.1583 89.131 16 89.131 16.85C89.131 17.6833 89.131 18.45 89.131 19.15C89.1476 19.85 89.156 20.4167 89.156 20.85C89.156 21.2833 89.156 21.5083 89.156 21.525C89.156 21.5417 89.1476 21.625 89.131 21.775C89.131 21.925 89.0726 22.1 88.956 22.3C88.8393 22.4833 88.631 22.65 88.331 22.8C88.0476 22.9333 87.6226 23 87.056 23C86.4893 23 86.056 22.9417 85.756 22.825C85.4726 22.6917 85.2726 22.55 85.156 22.4C85.0393 22.2333 84.9726 22.0917 84.956 21.975C84.9393 21.8583 84.931 21.8 84.931 21.8C84.931 21.8 84.931 21.6583 84.931 21.375C84.931 21.075 84.931 20.7083 84.931 20.275C84.9476 19.825 84.956 19.3833 84.956 18.95C84.9726 18.5 84.981 18.125 84.981 17.825C84.981 17.525 84.981 17.375 84.981 17.375L85.181 13.8L83.881 16.575C83.881 16.575 83.831 16.6667 83.731 16.85C83.6476 17.0333 83.481 17.2167 83.231 17.4C82.981 17.5833 82.606 17.6833 82.106 17.7C81.6226 17.7167 81.2393 17.65 80.956 17.5C80.6893 17.3333 80.4976 17.175 80.381 17.025C80.281 16.8583 80.231 16.775 80.231 16.775L78.606 13.8C78.606 13.8 78.6143 14 78.631 14.4C78.6643 14.7833 78.6976 15.2917 78.731 15.925C78.7643 16.5417 78.7976 17.2 78.831 17.9C78.8643 18.5833 78.8893 19.2333 78.906 19.85C78.9393 20.45 78.9643 20.9333 78.981 21.3C78.9976 21.75 78.906 22.1 78.706 22.35C78.506 22.5833 78.2726 22.75 78.006 22.85C77.7393 22.9333 77.4976 22.9833 77.281 23C77.081 23 76.981 23 76.981 23ZM93.0995 9.5C93.0828 9.5 93.1078 9.40833 93.1745 9.225C93.2578 9.025 93.4412 8.83333 93.7245 8.65C94.0078 8.46667 94.4745 8.36667 95.1245 8.35C95.7078 8.33333 96.1495 8.40833 96.4495 8.575C96.7495 8.725 96.9495 8.875 97.0495 9.025C97.1662 9.175 97.2245 9.25 97.2245 9.25C97.2245 9.25 97.3162 9.46667 97.4995 9.9C97.6828 10.3333 97.9328 10.9083 98.2495 11.625C98.5662 12.325 98.9162 13.1083 99.2995 13.975C99.6828 14.8417 100.066 15.725 100.45 16.625C100.85 17.5083 101.216 18.3417 101.55 19.125C101.9 19.8917 102.191 20.5417 102.425 21.075C102.658 21.5917 102.808 21.9167 102.875 22.05C103.025 22.3667 103.108 22.5917 103.125 22.725C103.141 22.8583 103.133 22.95 103.1 23C103.083 23.0333 103.075 23.0583 103.075 23.075C102.958 23.3083 102.725 23.5083 102.375 23.675C102.041 23.8583 101.633 23.9583 101.15 23.975C100.483 23.9917 99.9995 23.9167 99.6995 23.75C99.3995 23.6 99.1995 23.4417 99.0995 23.275C99.0162 23.125 98.9828 23.0583 98.9995 23.075C98.9995 23.075 98.9078 22.8833 98.7245 22.5C98.5578 22.1167 98.3578 21.6583 98.1245 21.125C97.8912 20.575 97.6745 20.075 97.4745 19.625C97.4745 19.625 97.3578 19.625 97.1245 19.625C96.9078 19.625 96.6495 19.625 96.3495 19.625C96.0495 19.625 95.7828 19.625 95.5495 19.625C95.3328 19.625 95.2245 19.625 95.2245 19.625C95.1578 19.8583 95.0912 20.15 95.0245 20.5C94.9578 20.8333 94.8995 21.1333 94.8495 21.4C94.7995 21.6667 94.7745 21.8 94.7745 21.8C94.7745 21.8 94.7328 21.9 94.6495 22.1C94.5828 22.3 94.3912 22.5 94.0745 22.7C93.7578 22.9 93.2328 23 92.4995 23C91.9495 23 91.5328 22.9417 91.2495 22.825C90.9828 22.6917 90.7995 22.5417 90.6995 22.375C90.6162 22.2083 90.5745 22.0667 90.5745 21.95C90.5745 21.8167 90.5745 21.75 90.5745 21.75C90.6078 21.5833 90.6745 21.2417 90.7745 20.725C90.8912 20.1917 91.0245 19.5583 91.1745 18.825C91.3412 18.075 91.5078 17.2833 91.6745 16.45C91.8578 15.6167 92.0328 14.7917 92.1995 13.975C92.3662 13.1583 92.5162 12.4167 92.6495 11.75C92.7828 11.0667 92.8912 10.525 92.9745 10.125C93.0578 9.70833 93.0995 9.5 93.0995 9.5ZM95.7245 13.45C95.7078 13.5167 95.6912 13.65 95.6745 13.85L95.5745 14.55C95.5412 14.9333 95.4995 15.3417 95.4495 15.775C95.3995 16.2083 95.3495 16.6167 95.2995 17C95.2662 17.2 95.2412 17.325 95.2245 17.375H95.5495C95.7495 17.375 95.9662 17.3667 96.1995 17.35C96.4328 17.3333 96.6412 17.325 96.8245 17.325C96.7578 17.1917 96.6995 17.025 96.6495 16.825C96.6162 16.6083 96.5745 16.4083 96.5245 16.225C96.4245 15.8417 96.3078 15.4417 96.1745 15.025C96.0578 14.6083 95.9495 14.2167 95.8495 13.85C95.7995 13.65 95.7578 13.5167 95.7245 13.45ZM104.822 11.125C104.605 11.1583 104.297 11.1833 103.897 11.2C103.497 11.2 103.089 11.175 102.672 11.125C102.255 11.075 101.897 10.9833 101.597 10.85C101.297 10.7 101.13 10.4833 101.097 10.2C101.08 9.91667 101.164 9.69167 101.347 9.525C101.547 9.35833 101.78 9.23333 102.047 9.15C102.314 9.05 102.547 8.99167 102.747 8.975C102.964 8.94167 103.072 8.925 103.072 8.925L110.072 8.275C110.072 8.275 110.189 8.275 110.422 8.275C110.655 8.25833 110.922 8.26667 111.222 8.3C111.539 8.33333 111.822 8.41667 112.072 8.55C112.322 8.66667 112.455 8.85833 112.472 9.125C112.505 9.39167 112.422 9.61667 112.222 9.8C112.039 9.96667 111.814 10.1083 111.547 10.225C111.28 10.325 111.047 10.4 110.847 10.45C110.647 10.4833 110.547 10.5 110.547 10.5L108.947 10.75C109.014 11.1667 109.089 11.7583 109.172 12.525C109.255 13.275 109.339 14.1083 109.422 15.025C109.505 15.9417 109.58 16.8417 109.647 17.725C109.714 18.6083 109.764 19.4 109.797 20.1C109.847 20.8 109.872 21.3 109.872 21.6C109.872 21.9833 109.764 22.275 109.547 22.475C109.347 22.6583 109.105 22.7917 108.822 22.875C108.555 22.9417 108.314 22.9833 108.097 23C107.897 23 107.797 23 107.797 23C107.797 23 107.689 23 107.472 23C107.255 22.9833 107.005 22.9167 106.722 22.8C106.455 22.6833 106.214 22.4667 105.997 22.15C105.797 21.8333 105.697 21.3583 105.697 20.725C105.697 20.1583 105.664 19.4667 105.597 18.65C105.547 17.8333 105.48 16.9917 105.397 16.125C105.314 15.2417 105.222 14.425 105.122 13.675C105.039 12.925 104.964 12.3167 104.897 11.85C104.847 11.3667 104.822 11.125 104.822 11.125ZM124.101 19.775C124.101 19.775 124.076 19.8833 124.026 20.1C123.976 20.3167 123.868 20.5833 123.701 20.9C123.534 21.2167 123.276 21.5417 122.926 21.875C122.593 22.1917 122.134 22.4583 121.551 22.675C120.968 22.8917 120.234 23 119.351 23C118.284 23 117.409 22.8333 116.726 22.5C116.059 22.1667 115.534 21.7167 115.151 21.15C114.768 20.5667 114.493 19.925 114.326 19.225C114.159 18.5083 114.059 17.7667 114.026 17C114.009 16.2333 114.018 15.4917 114.051 14.775C114.084 14.0417 114.109 13.3833 114.126 12.8C114.143 11.9167 114.301 11.2083 114.601 10.675C114.918 10.125 115.301 9.70833 115.751 9.425C116.218 9.125 116.701 8.91667 117.201 8.8C117.701 8.68333 118.151 8.61667 118.551 8.6C119.368 8.55 120.193 8.69167 121.026 9.025C121.859 9.35833 122.534 9.975 123.051 10.875C123.318 11.325 123.393 11.6833 123.276 11.95C123.176 12.2 122.984 12.3833 122.701 12.5C122.434 12.6167 122.159 12.6917 121.876 12.725C121.593 12.7583 121.409 12.775 121.326 12.775C120.793 12.775 120.384 12.7 120.101 12.55C119.834 12.4 119.643 12.225 119.526 12.025C119.426 11.8083 119.376 11.6167 119.376 11.45C119.376 11.3167 119.334 11.1833 119.251 11.05C119.184 10.9 119.093 10.8 118.976 10.75C118.876 10.7 118.768 10.7583 118.651 10.925C118.551 11.0917 118.468 11.4167 118.401 11.9C118.351 12.2833 118.318 12.7917 118.301 13.425C118.301 14.0417 118.309 14.7 118.326 15.4C118.343 16.0833 118.359 16.7333 118.376 17.35C118.409 17.9667 118.434 18.475 118.451 18.875C118.484 19.2583 118.501 19.45 118.501 19.45C118.501 19.45 118.518 19.575 118.551 19.825C118.601 20.075 118.693 20.325 118.826 20.575C118.976 20.825 119.193 20.9583 119.476 20.975C119.693 20.9917 119.859 20.925 119.976 20.775C120.109 20.6083 120.201 20.425 120.251 20.225C120.318 20.0083 120.359 19.825 120.376 19.675C120.393 19.5083 120.401 19.425 120.401 19.425C120.401 19.425 120.393 19.3583 120.376 19.225C120.376 19.0917 120.418 18.9417 120.501 18.775C120.584 18.5917 120.759 18.4417 121.026 18.325C121.293 18.1917 121.701 18.1333 122.251 18.15C122.801 18.1667 123.209 18.2583 123.476 18.425C123.743 18.575 123.918 18.7583 124.001 18.975C124.084 19.175 124.118 19.3583 124.101 19.525C124.101 19.6917 124.101 19.775 124.101 19.775ZM125.809 21.625L125.334 9.825C125.334 9.825 125.334 9.75833 125.334 9.625C125.351 9.49167 125.409 9.34167 125.509 9.175C125.609 8.99167 125.792 8.83333 126.059 8.7C126.342 8.55 126.751 8.46667 127.284 8.45C128.001 8.41667 128.509 8.5 128.809 8.7C129.126 8.88333 129.317 9.08333 129.384 9.3C129.467 9.5 129.509 9.60833 129.509 9.625C129.509 9.64167 129.517 9.83333 129.534 10.2C129.551 10.5667 129.567 11.0167 129.584 11.55C129.601 12.0833 129.617 12.6167 129.634 13.15C129.651 13.6833 129.667 14.1333 129.684 14.5C129.701 14.85 129.709 15.025 129.709 15.025L132.359 14.875L131.959 9.85C131.959 9.85 131.951 9.79167 131.934 9.675C131.934 9.54167 131.967 9.39167 132.034 9.225C132.117 9.04167 132.284 8.875 132.534 8.725C132.801 8.55833 133.192 8.45 133.709 8.4C134.242 8.35 134.651 8.38333 134.934 8.5C135.217 8.6 135.426 8.73333 135.559 8.9C135.692 9.06667 135.767 9.21667 135.784 9.35C135.817 9.48333 135.834 9.55 135.834 9.55L136.609 21.225C136.609 21.225 136.617 21.3167 136.634 21.5C136.651 21.6667 136.626 21.875 136.559 22.125C136.492 22.3583 136.326 22.5667 136.059 22.75C135.809 22.9167 135.417 23 134.884 23C134.351 23 133.934 22.925 133.634 22.775C133.334 22.625 133.117 22.4583 132.984 22.275C132.851 22.075 132.767 21.9 132.734 21.75C132.701 21.6 132.684 21.525 132.684 21.525L132.509 16.725L129.784 16.875L130.009 21.775C130.009 21.775 130.001 21.8417 129.984 21.975C129.967 22.0917 129.901 22.2333 129.784 22.4C129.667 22.55 129.467 22.6917 129.184 22.825C128.901 22.9417 128.484 23 127.934 23C127.384 23 126.959 22.9333 126.659 22.8C126.376 22.65 126.176 22.4917 126.059 22.325C125.942 22.1417 125.867 21.9833 125.834 21.85C125.817 21.7 125.809 21.625 125.809 21.625Z" fill="black"/>
<defs>
<clipPath id="clip0_32_618">
<rect width="30" height="29" fill="white"/>
</clipPath>
<clipPath id="clip1_32_618">
<rect width="13.4483" height="11.2258" fill="white" transform="translate(8.27586 12.1613)"/>
</clipPath>
</defs>
</svg>
